<svg xmlns="http://www.w3.org/2000/svg" width="22.714" height="26.883" viewBox="0 0 22.714 26.883">
  <g id="vuesax_linear_global" data-name="vuesax/linear/global" transform="translate(-172.5 -251.073)">
    <g id="グループ_295" data-name="グループ 295" transform="translate(173 251.573)">
      <g id="グループ_296" data-name="グループ 296">
        <path id="パス_4" data-name="パス 4" d="M10.857,0A10.855,10.855,0,0,0,.911,15.207v6.269a.174.174,0,0,0,.174.174H3.7L2.449,24.157v0a.178.178,0,0,0-.013.04s0,.006,0,.009a.164.164,0,0,0,0,.025v1.474a.174.174,0,0,0,.174.174h16.5a.174.174,0,0,0,.174-.174V24.235a.164.164,0,0,0,0-.025s0-.006,0-.009a.178.178,0,0,0-.013-.04v0L18.019,21.65h2.668a.174.174,0,0,0,.174-.174v-6.4A10.857,10.857,0,0,0,10.857,0m8.078,25.535H2.779V24.409H18.935ZM2.886,24.061l1.2-2.411.173-.349.672-1.352.076-.153.08-.161,1.68-3.379.078-.157.081-.162.386-.777L7.389,15l0-.006h6.929l0,.006.079.159.386.777.08.162.078.157,1.68,3.379.08.161.076.153.672,1.352.173.349,1.2,2.411ZM10.857.349a10.509,10.509,0,0,1,9.877,14.1q-.1.282-.222.557a10.572,10.572,0,0,1-3.594,4.433l-1.692-3.4a6.831,6.831,0,0,0,1.146-1.244q.122-.171.234-.349a6.777,6.777,0,1,0-11.5,0q.111.178.234.349a6.831,6.831,0,0,0,1.146,1.244L4.8,19.436a10.574,10.574,0,0,1-3.536-4.3q-.146-.327-.271-.665A10.51,10.51,0,0,1,10.857.349m3.573,14.3H7.284a.169.169,0,0,0-.023,0q-.108-.1-.21-.21a5.226,5.226,0,0,1,3.805-8.812,5.554,5.554,0,0,1,2.267.517,5.127,5.127,0,0,1,2.963,4.713,5.21,5.21,0,0,1-1.425,3.582q-.1.108-.21.21a.173.173,0,0,0-.023,0m.382.142q.166-.167.318-.349a5.579,5.579,0,1,0-8.545,0q.152.181.318.349c.045.045.091.089.138.132l-.393.79a6.489,6.489,0,0,1-.872-.922c-.088-.114-.174-.229-.254-.349a6.429,6.429,0,1,1,10.671,0c-.08.119-.166.235-.254.349a6.477,6.477,0,0,1-.872.922l-.392-.79c.046-.044.093-.087.138-.132M1.259,21.3V15.928a10.935,10.935,0,0,0,3.38,3.824l-.77,1.55Zm19.253,0H17.846l-.77-1.55a10.933,10.933,0,0,0,3.437-3.933Z" fill="#fff" stroke="#fff" stroke-width="1"/>
        <path id="パス_5" data-name="パス 5" d="M79.337,19.908a.325.325,0,1,0-.325-.325.325.325,0,0,0,.325.325" transform="translate(-69.83 -17.02)" fill="#fff"/>
        <path id="パス_6" data-name="パス 6" d="M91.2,19.908a.325.325,0,1,0-.325-.325.325.325,0,0,0,.325.325" transform="translate(-80.317 -17.02)" fill="#fff"/>
        <path id="パス_7" data-name="パス 7" d="M103.069,19.908a.325.325,0,1,0-.325-.325.325.325,0,0,0,.325.325" transform="translate(-90.804 -17.02)" fill="#fff"/>
      </g>
    </g>
  </g>
</svg>
