<?xml version="1.0" encoding="utf-8"?>
<!-- Generator: Adobe Illustrator 27.0.0, SVG Export Plug-In . SVG Version: 6.00 Build 0)  -->
<svg version="1.1" id="レイヤー_1" xmlns="http://www.w3.org/2000/svg" xmlns:xlink="http://www.w3.org/1999/xlink" x="0px"
	 y="0px" viewBox="0 0 15 15" style="enable-background:new 0 0 15 15;" xml:space="preserve">
<style type="text/css">
	.st0{enable-background:new    ;}
	.st1{fill:#FFFFFF;}
</style>
<g class="st0">
	<path class="st1" d="M15,2.1c0,7-5.7,12.7-12.7,12.7c-0.3,0-0.6-0.2-0.6-0.5L1,11.4c-0.1-0.3,0.1-0.6,0.4-0.8l3.1-1.3
		c0.3-0.1,0.6,0,0.8,0.2l1.4,1.7c2.1-1,3.9-2.7,4.8-4.8L9.8,5C9.5,4.8,9.5,4.5,9.6,4.2l1.3-3.1c0.1-0.3,0.4-0.5,0.8-0.4l2.8,0.7
		C14.8,1.5,15,1.8,15,2.1z"/>
</g>
</svg>
